<svg id="bold" enable-background="new 0 0 24 24" height="512" viewBox="0 0 24 24" width="512" xmlns="http://www.w3.org/2000/svg"><path d="m18.25 0h-12.5c-1.517 0-2.75 1.233-2.75 2.75v18.5c0 1.517 1.233 2.75 2.75 2.75h12.5c1.517 0 2.75-1.233 2.75-2.75v-18.5c0-1.517-1.233-2.75-2.75-2.75zm.75 21.25c0 .414-.336.75-.75.75h-12.5c-.414 0-.75-.336-.75-.75v-18.5c0-.414.336-.75.75-.75h12.5c.414 0 .75.336.75.75z"/><path d="m16.25 9.628v-1.878c0-1.517-1.233-2.75-2.75-2.75h-2.5v-.25c0-.965-.785-1.75-1.75-1.75h-1.5c-.965 0-1.75.785-1.75 1.75v1.5c0 .965.785 1.75 1.75 1.75h1.5c.879 0 1.602-.654 1.725-1.5h2.525c.689 0 1.25.561 1.25 1.25v1.878c-.772.245-1.377.85-1.622 1.622h-2.128c0-.965-.785-1.75-1.75-1.75h-1.5c-.965 0-1.75.785-1.75 1.75v1.5c0 .965.785 1.75 1.75 1.75h1.5c.965 0 1.75-.785 1.75-1.75h2.128c.245.772.85 1.377 1.622 1.622v1.878c0 .689-.561 1.25-1.25 1.25h-2.525c-.123-.846-.846-1.5-1.725-1.5h-1.5c-.965 0-1.75.785-1.75 1.75v1.5c0 .965.785 1.75 1.75 1.75h1.5c.965 0 1.75-.785 1.75-1.75v-.25h2.5c1.517 0 2.75-1.233 2.75-2.75v-1.878c1.011-.321 1.75-1.257 1.75-2.372s-.739-2.051-1.75-2.372zm-6.75-3.378c0 .138-.112.25-.25.25h-1.5c-.138 0-.25-.112-.25-.25v-1.5c0-.138.112-.25.25-.25h1.5c.138 0 .25.112.25.25zm0 6.5c0 .138-.112.25-.25.25h-1.5c-.138 0-.25-.112-.25-.25v-1.5c0-.138.112-.25.25-.25h1.5c.138 0 .25.112.25.25zm0 6.5c0 .138-.112.25-.25.25h-1.5c-.138 0-.25-.112-.25-.25v-1.5c0-.138.112-.25.25-.25h1.5c.138 0 .25.112.25.25z"/></svg>